<?xml version="1.0" encoding="iso-8859-1"?>
<!-- Generator: Adobe Illustrator 19.0.0, SVG Export Plug-In . SVG Version: 6.00 Build 0)  -->
<svg version="1.1" id="Capa_1" xmlns="http://www.w3.org/2000/svg"
     xmlns:xlink="http://www.w3.org/1999/xlink" x="0px" y="0px"
     viewBox="0 0 512 512" style="enable-background:new 0 0 512 512;"
     xml:space="preserve">
    <style>
        .element {
            fill: #9575CD;
        }
    </style>
<g class="element">
	<g>
		<path d="M437.02,74.98C388.667,26.629,324.381,0,256,0S123.333,26.629,74.98,74.98C26.628,123.332,0,187.619,0,256
			s26.629,132.667,74.98,181.02C123.332,485.372,187.619,512,256,512s132.667-26.629,181.02-74.98
			C485.372,388.668,512,324.381,512,256S485.371,123.333,437.02,74.98z M256,492.308C125.7,492.308,19.692,386.3,19.692,256
			S125.7,19.692,256,19.692S492.308,125.7,492.308,256S386.3,492.308,256,492.308z"/>
	</g>
</g>
    <g class="element">
	<g>
		<path d="M403.561,386.723c-3.897-3.793-10.109-3.728-13.902,0.169c-3.845,3.845-3.845,10.08,0,13.925
			c1.923,1.923,4.443,2.884,6.962,2.884s5.04-0.961,6.962-2.884c0.032-0.033,0.115-0.117,0.147-0.15
			C407.522,396.771,407.458,390.516,403.561,386.723z"/>
	</g>
</g>
    <g class="element">
	<g>
		<path d="M452.923,246.154c-5.438,0-9.846,4.408-9.846,9.846c0,39.068-11.917,76.49-34.461,108.223
			c-3.15,4.433-2.109,10.58,2.324,13.729c1.73,1.23,3.721,1.821,5.694,1.821c3.081,0,6.115-1.443,8.035-4.144
			c24.926-35.085,38.1-76.451,38.1-119.629C462.769,250.562,458.361,246.154,452.923,246.154z"/>
	</g>
</g>
    <g class="element">
	<g>
		<path d="M254.31,60.766c-15.356-15.355-40.342-15.355-55.699,0.001c-15.355,15.356-15.355,40.343,0,55.698
			c1.923,1.923,4.443,2.884,6.962,2.884s5.04-0.962,6.962-2.884c3.845-3.845,3.846-10.079,0-13.924
			c-7.678-7.678-7.678-20.172,0-27.85c7.679-7.678,20.171-7.678,27.85,0c3.845,3.845,10.079,3.845,13.924,0
			C258.155,70.845,258.155,64.61,254.31,60.766z"/>
	</g>
</g>
    <g class="element">
	<g>
		<path d="M126.31,198.612c-15.356-15.355-40.342-15.355-55.699,0.001c-15.355,15.356-15.355,40.343,0,55.698
			c1.923,1.923,4.443,2.884,6.962,2.884c2.52,0,5.04-0.962,6.962-2.884c3.845-3.845,3.846-10.08,0-13.924
			c-7.678-7.678-7.678-20.172,0-27.85c7.679-7.678,20.171-7.678,27.85,0c3.845,3.845,10.079,3.845,13.924,0
			C130.155,208.691,130.155,202.457,126.31,198.612z"/>
	</g>
</g>
    <g class="element">
	<g>
		<path d="M244.464,169.073c-15.356-15.355-40.342-15.355-55.699,0.001c-15.355,15.356-15.355,40.343,0,55.698
			c1.923,1.923,4.443,2.884,6.962,2.884c2.52,0,5.04-0.962,6.962-2.884c3.845-3.845,3.846-10.079,0-13.924
			c-7.678-7.678-7.678-20.172,0-27.85c7.679-7.678,20.171-7.678,27.85,0c3.845,3.845,10.08,3.845,13.924,0
			C248.309,179.153,248.309,172.918,244.464,169.073z"/>
	</g>
</g>
    <g class="element">
	<g>
		<path d="M165.695,109.996c-15.356-15.355-40.342-15.355-55.699,0.001c-15.355,15.356-15.355,40.343,0,55.698
			c1.923,1.923,4.443,2.884,6.962,2.884c2.52,0,5.04-0.962,6.962-2.884c3.845-3.845,3.846-10.08,0-13.924
			c-7.678-7.678-7.678-20.172,0-27.85c7.679-7.678,20.171-7.678,27.85,0c3.845,3.845,10.08,3.845,13.924,0
			S169.54,113.841,165.695,109.996z"/>
	</g>
</g>
    <g>
</g>
    <g>
</g>
    <g>
</g>
    <g>
</g>
    <g>
</g>
    <g>
</g>
    <g>
</g>
    <g>
</g>
    <g>
</g>
    <g>
</g>
    <g>
</g>
    <g>
</g>
    <g>
</g>
    <g>
</g>
    <g>
</g>
</svg>
